<svg width="132" height="46" viewBox="0 0 132 46" fill="none" xmlns="http://www.w3.org/2000/svg">
<g>
<path fill-rule="evenodd" clip-rule="evenodd" d="M2.323 4.01927L18.795 2.32312L35.1864 4.01927V34.3077L18.795 44L2.323 34.3077V4.01927Z" stroke="white" stroke-width="2.791"/>
<path fill-rule="evenodd" clip-rule="evenodd" d="M2.56519 18.0731L18.2298 8.94617L35.1056 18.0731V19.0423L18.795 28.6539L2.56519 19.0423V18.0731Z" stroke="white" stroke-width="2.057"/>
<path fill-rule="evenodd" clip-rule="evenodd" d="M47.9441 2.72693V8.46154C48.8323 7.57308 49.9627 7.08847 51.1739 7.08847C53.677 7.08847 55.2919 8.78462 55.2919 11.2077V17.4269H53.0311V11.5308C53.0311 9.91539 52.0621 9.1077 50.6895 9.1077C49.3975 9.1077 48.4286 9.99616 47.8634 10.8039V17.4269H45.6025V2.72693H47.9441ZM21.1367 26.15L18.795 27.6846V31.1577L8.21741 25.0192V26.5539L18.795 32.7731V34.4692L8.21741 28.0885V29.8654L18.795 36.0039L29.2112 29.7039V22.9192L18.795 16.5385V18.2346L26.4659 23L25.1739 23.7269L18.795 19.85V21.6269L23.8013 24.6154L22.5901 25.3423L18.795 23.0808V24.6154L21.1367 26.15ZM55.6957 33.2577C55.5342 33.3385 55.2919 33.4192 55.0497 33.4192C54.646 33.4192 54.2423 33.2577 54.1615 32.6923V29.1385C54.1615 26.15 52.3044 24.7769 49.4783 24.7769C48.1056 24.7769 46.8137 25.0192 45.6025 25.4231V27.4423C46.7329 26.8769 48.0249 26.6346 49.236 26.6346C51.0124 26.6346 51.9006 27.4423 51.9006 28.7346V29.0577C51.0932 28.8154 50.205 28.7346 49.3168 28.7346C47.2982 28.7346 44.8758 29.5423 44.8758 32.1269C44.8758 34.2269 46.5714 35.1962 48.4286 35.1962C50.0435 35.1962 51.2547 34.7115 52.2236 33.9039C52.6273 34.7923 53.3541 35.1154 54.2423 35.1154C54.7267 35.1154 55.2112 35.0346 55.6957 34.8731V33.2577ZM47.2174 32.0462C47.2174 33.0154 48.1056 33.5 49.0746 33.5C50.1242 33.5 51.1739 33.0962 51.9814 32.2885V30.5923C51.2547 30.4308 50.528 30.35 49.8013 30.35C48.5901 30.4308 47.2174 30.8346 47.2174 32.0462ZM65.2236 25.5039C64.3354 24.9385 63.2857 24.6962 62.1553 24.6962C59.4907 24.6962 56.5839 26.3115 56.6646 30.1077C56.6646 33.7423 59.41 35.3577 62.0746 35.3577C63.3665 35.3577 64.4162 35.1154 65.3851 34.6308V32.5308C64.4969 33.0962 63.528 33.3385 62.4783 33.3385C60.7019 33.3385 58.9255 32.2885 58.9255 30.0269C58.9255 27.6846 60.7019 26.7154 62.4783 26.7154C63.4472 26.7154 64.4969 27.0385 65.2236 27.5231V25.5039ZM76.7702 33.4192C77.0124 33.4192 77.2547 33.3385 77.4162 33.2577V34.8731C76.9317 35.0346 76.4472 35.1154 75.9628 35.1154C75.0746 35.1154 74.3478 34.7923 73.9441 33.9039C72.9752 34.7115 71.764 35.1962 70.1491 35.1962C68.2919 35.1962 66.5963 34.2269 66.5963 32.1269C66.5963 29.5423 69.0187 28.7346 71.0373 28.7346C71.9255 28.7346 72.8137 28.8154 73.6211 29.0577V28.7346C73.6211 27.4423 72.7329 26.6346 70.9565 26.6346C69.7454 26.6346 68.4534 26.8769 67.323 27.4423V25.4231C68.5342 25.0192 69.8261 24.7769 71.1988 24.7769C74.0249 24.7769 75.882 26.15 75.882 29.1385V32.6923C76.0435 33.2577 76.3665 33.4192 76.7702 33.4192ZM70.8758 33.5C69.9068 33.5 69.0187 33.0154 69.0187 32.0462C69.0187 30.8346 70.3913 30.4308 71.6025 30.35C72.3292 30.35 73.0559 30.4308 73.7826 30.5923V32.2885C72.9752 33.0962 71.9255 33.5 70.8758 33.5ZM89.205 20.3346V34.9538H87.1864V33.3385C86.3789 34.3077 85.2485 35.1962 83.3106 35.1962C80.2423 35.1962 78.3044 32.7731 78.3044 29.8654C78.3044 26.9577 80.2423 24.5346 83.3106 24.5346C85.087 24.5346 86.2174 25.3423 86.9441 26.0692V20.1731H89.205V20.3346ZM80.646 29.9462C80.646 28.0077 82.0187 26.6346 83.7951 26.6346C85.1677 26.6346 86.4596 27.4423 87.0249 28.7346V31.1577C86.4596 32.45 85.1677 33.2577 83.7951 33.2577C81.9379 33.2577 80.646 31.8846 80.646 29.9462ZM96.4721 24.6962C100.429 24.6962 101.882 27.9269 101.236 30.8346H93.646C93.8882 32.6115 95.6646 33.4192 97.5218 33.4192C98.6522 33.4192 99.7019 33.1769 100.671 32.6923V34.6308C99.7826 35.0346 98.4907 35.3577 97.0373 35.3577C93.969 35.3577 91.3044 33.5808 91.3044 30.0269C91.3851 26.3115 94.1305 24.6962 96.4721 24.6962ZM93.646 29.1385C93.8075 27.4423 95.0994 26.5539 96.6336 26.5539C98.8137 26.5539 99.2982 28.25 99.2174 29.1385H93.646ZM103.497 35.0346V24.9385H105.516V26.2308C106.081 25.5846 107.211 24.6962 108.826 24.6962C110.36 24.6962 111.41 25.3423 111.975 26.3115C112.863 25.4231 113.994 24.6962 115.528 24.6962C118.193 24.6962 119.323 26.6346 119.323 28.7346V35.0346H117.062V28.8154C117.062 27.5231 116.255 26.7154 115.043 26.7154C113.913 26.7154 113.106 27.4423 112.54 28.0885C112.54 28.2096 112.561 28.3308 112.581 28.4519C112.601 28.5731 112.621 28.6942 112.621 28.8154V35.1154H110.36V28.8962C110.36 27.6039 109.553 26.7962 108.342 26.7962C107.13 26.7962 106.242 27.6846 105.677 28.3308V35.1154L103.497 35.0346ZM131.516 24.9385H129.174L126.348 32.5308L122.957 24.9385H120.534L125.298 35.0346L125.056 35.5192C124.491 37.0539 123.603 37.8615 122.553 37.8615C122.149 37.8615 121.826 37.7808 121.503 37.7V39.6385L121.503 39.6385C121.907 39.7192 122.311 39.8 122.795 39.8C124.329 39.8 125.783 38.9115 126.832 36.3269L131.516 24.9385ZM61.4286 7.33077V3.77693L59.2485 4.34231V7.33077H57.4721V9.26924H59.2485V14.2769C59.2485 16.6192 60.7826 17.5885 62.7205 17.5885C63.6087 17.6692 64.4969 17.5077 65.3851 17.1846V15.2462C64.7391 15.4885 64.0932 15.65 63.3665 15.65C62.0746 15.65 61.4286 15.1654 61.4286 13.8731V9.26924H65.0621V7.33077H61.4286ZM67.8882 17.4269V7.33077H69.9068V8.62308C70.4721 8.0577 71.6025 7.08847 73.2174 7.08847C74.7516 7.08847 75.8013 7.73462 76.3665 8.70385C77.2547 7.81539 78.3851 7.08847 79.9193 7.08847C82.5839 7.08847 83.7143 9.02693 83.7143 11.1269V17.4269H81.4534V11.2077C81.4534 9.91539 80.646 9.1077 79.4348 9.1077C78.3044 9.1077 77.4969 9.83462 76.9317 10.4808C76.9317 10.6019 76.9519 10.7231 76.9721 10.8442C76.9922 10.9654 77.0124 11.0865 77.0124 11.2077V17.5077H74.7516V11.2885C74.7516 9.99616 73.9441 9.18847 72.7329 9.18847C71.5218 9.18847 70.6336 10.0769 70.0683 10.7231V17.5077L67.8882 17.4269ZM89.2857 2.72693H87.0249V17.3462H89.2857V2.72693Z" fill="white"/>
</g>
</svg>
