<svg width="22" height="22" viewBox="0 0 22 22" fill="none" xmlns="http://www.w3.org/2000/svg">
<path opacity="0.764951" fill-rule="evenodd" clip-rule="evenodd" d="M9.22163 18.4433C11.4663 18.4433 13.5236 17.6413 15.1227 16.3083L20.8144 22L22 20.8144L16.3083 15.1227C17.6413 13.5236 18.4433 11.4663 18.4433 9.22163C18.4433 4.12867 14.3146 0 9.22163 0C4.12867 0 0 4.12867 0 9.22163C0 14.3146 4.12867 18.4433 9.22163 18.4433ZM16.7666 9.22163C16.7666 13.3886 13.3886 16.7666 9.22163 16.7666C5.05466 16.7666 1.67666 13.3886 1.67666 9.22163C1.67666 5.05466 5.05466 1.67666 9.22163 1.67666C13.3886 1.67666 16.7666 5.05466 16.7666 9.22163Z" fill="white"/>
</svg>
